<svg width="1177" height="874" viewBox="0 0 1177 874" fill="none" xmlns="http://www.w3.org/2000/svg">
<g clip-path="url(#clip0_9_240)">
<path d="M1083.97 212.452C950.424 26.6217 668.322 -48.7591 390.883 32.4278C244.21 75.3488 102.79 161.348 32.7055 327.869C-92.5779 625.544 170.47 720.614 342.475 750.914C425.648 765.565 503.982 790.176 575.564 823.684C704.348 883.969 932.303 937.387 1104.2 686.275C1228.79 504.269 1172.92 336.233 1083.97 212.452Z" fill="#F2F2F2"/>
<path d="M309.732 249.217C309.358 246.264 308.603 243.372 307.484 240.613C307.342 240.091 307.092 239.605 306.751 239.185C306.41 238.765 305.986 238.421 305.504 238.174C304.861 238.007 304.186 237.999 303.54 238.152L293.452 239.696C292.608 239.734 291.8 240.048 291.151 240.59C289.837 241.972 291.131 244.196 291.09 246.103C291.045 248.246 289.141 249.986 287.075 250.562C284.967 250.988 282.793 250.961 280.696 250.482L266.591 248.291C270.745 246.964 274.442 244.497 277.261 241.17C279.117 238.971 280.105 234.866 277.422 233.824C276.625 233.606 275.794 233.539 274.973 233.628C268.582 233.677 263.553 228.342 257.57 226.094C253.741 224.749 249.585 224.649 245.696 225.808C241.806 226.968 238.383 229.328 235.916 232.55L243.43 232.912C244.137 232.873 244.838 233.06 245.431 233.446C247.078 234.799 245.031 237.398 245.263 239.516C245.564 242.269 249.219 242.856 251.974 243.135C254.729 243.413 258.224 245.651 256.898 248.083C243.052 252.852 228.961 238.759 214.419 240.494C210.739 240.933 207.264 242.379 203.67 243.288C181.719 248.842 159.026 234.024 136.602 237.162C131.617 238.012 126.718 239.304 121.962 241.023C118.91 242.025 115.727 243.108 113.509 245.432C111.292 247.756 110.448 251.731 112.548 254.161C106.758 254.638 100.929 254.084 95.3326 252.524C96.8461 253.366 98.1052 254.599 98.9777 256.094C99.8502 257.59 100.304 259.293 100.291 261.025C91.2506 262.499 82.4493 265.183 74.1241 269.003C75.6779 271.587 77.4927 274.005 79.5401 276.218L68.0947 283.571C71.9615 284.545 73.9607 289.818 71.7121 293.111C75.7215 291.328 78.2063 286.713 82.4937 285.778C85.3025 285.165 88.1606 286.314 90.8252 287.393C93.4897 288.473 96.4184 289.519 99.1768 288.709C101.935 287.899 103.97 284.322 102.217 282.044C114.007 278.604 126.192 276.7 138.47 276.38C139.417 276.261 140.378 276.443 141.215 276.901C142.814 278.01 142.393 280.405 142.307 282.348C142.221 284.291 143.736 286.845 145.472 285.969C143.429 287.741 145.176 291.077 147.136 292.94C149.097 294.804 151.46 297.375 150.259 299.798C149.946 300.431 149.415 300.937 149.113 301.575C148.224 303.46 149.636 305.656 151.302 306.907C152.968 308.159 155.009 309.033 156.167 310.766C157.324 312.498 156.798 315.531 154.729 315.773L148.847 308.305C146.837 310.388 145.459 312.999 144.873 315.835C151.111 320.934 152.049 331.313 146.827 337.448C144.158 340.583 140.363 342.488 137.051 344.934C133.738 347.379 130.674 350.862 130.682 354.979C130.696 362.092 130.115 368.7 132.78 375.295C137.696 387.455 143.37 399.295 149.771 410.743C151.452 413.749 153.624 417.044 157.029 417.561C152.726 407.085 148.852 396.446 145.408 385.644C147.651 385.653 150.244 385.831 151.559 387.648C152.648 389.153 152.414 391.2 152.752 393.026C153.182 394.796 153.9 396.483 154.877 398.021L175.426 434.625C177.13 437.66 179.084 440.917 182.339 442.146C184.421 442.932 186.829 442.784 188.745 443.915C190.247 444.801 191.258 446.375 192.789 447.21C197.118 449.572 203.138 445.043 207.183 447.862C208.34 448.669 209.076 449.949 210.142 450.872C213.878 454.108 220.007 451.943 224.32 454.357C227.1 455.913 228.541 459.024 230.023 461.843C233.737 468.905 239.747 475.824 247.706 476.386C250.206 476.563 252.76 476.089 255.204 476.645C257.648 477.201 260.054 479.334 259.661 481.809C258.989 486.053 261.086 490.7 260.522 494.96C259.497 502.72 248.49 506.13 247.545 513.899C247.338 515.601 247.662 517.357 247.257 519.022C246.76 521.063 245.228 522.724 244.683 524.753C243.651 528.597 246.405 532.423 249.431 535.009C252.456 537.595 256.065 539.825 257.72 543.446C259.468 547.272 258.609 551.734 259.178 555.903C260.419 565.003 268.279 571.75 276.369 576.099C278.833 577.425 281.479 578.708 283.075 581.007C285.157 584.008 284.949 587.964 285.645 591.55C287.347 600.331 294.74 607.567 294.95 616.51C295.099 622.866 291.566 628.632 289.455 634.629C287.476 640.375 286.76 646.481 287.356 652.529C287.951 658.577 289.844 664.425 292.906 669.675C294.485 672.341 296.373 674.855 297.49 677.745C299.483 682.902 298.836 688.765 300.674 693.98C303.104 700.875 309.78 706.569 309.141 713.852C312.172 720.146 318.864 723.238 325.594 725.112L337.656 728.469C339.965 729.112 342.379 729.76 344.73 729.294C347.082 728.829 349.326 726.876 349.266 724.48C343.351 723.146 337.246 721.727 332.371 718.123C327.495 714.519 324.155 708.1 326.005 702.326C326.862 699.649 328.687 696.557 326.952 694.344C325.959 693.078 324.142 692.747 323.022 691.591C321.274 689.788 321.875 686.76 323.131 684.586C324.388 682.412 326.204 680.47 326.71 678.01C326.966 676.635 326.795 675.214 326.221 673.938C325.646 672.662 324.695 671.592 323.495 670.873C325.731 670.028 327.765 668.723 329.465 667.042C331.035 665.249 331.76 662.485 330.525 660.447C334.192 660.912 338.522 661.14 340.93 658.334C342.852 656.094 342.72 652.745 341.961 649.892C341.201 647.039 339.917 644.268 339.877 641.316C348.337 641.717 356.816 641.43 365.23 640.457C364.013 636.359 361.248 632.896 357.522 630.803C361.332 630.158 364.804 625.596 366.008 621.924C367.212 618.251 366.905 614.251 366.161 610.459C365.875 609.482 365.836 608.45 366.047 607.455C366.476 606.088 367.819 605.253 369.062 604.539L387.976 593.677C389.105 593.111 390.128 592.356 391.001 591.444C392.983 589.116 392.689 585.602 391.674 582.719C390.66 579.835 389.034 577.123 388.643 574.091C387.474 565.024 397.181 558.518 400.457 549.982C401.742 546.632 402.004 542.991 402.253 539.412C402.52 535.568 402.54 531.103 399.589 528.625C396.759 526.251 392.338 526.78 389.377 524.571C386.663 522.546 385.726 518.613 382.761 516.977C380.068 515.492 376.691 516.437 373.696 515.738C368.422 514.508 365.104 508.43 359.718 507.867C356.679 507.549 353.24 509.035 350.749 507.265C348.555 505.706 348.467 502.572 348.049 499.912C347.317 495.779 345.336 491.969 342.372 488.996C339.409 486.023 335.605 484.029 331.474 483.284C328.341 482.781 324.931 482.972 322.265 481.25C319.566 479.507 318.329 476.243 316.209 473.828C312.792 469.937 307.41 468.554 302.369 467.369L281.863 462.548C278.223 461.693 273.531 461.239 271.578 464.428C271 465.642 270.59 466.929 270.361 468.254C269.629 470.651 268.156 472.754 266.154 474.262C264.151 475.769 261.723 476.602 259.217 476.642C257.498 473.711 254.714 471.557 251.445 470.629C249.366 470.05 247.14 469.985 245.157 469.133C244.077 468.605 243.116 467.863 242.333 466.952C241.549 466.041 240.96 464.979 240.602 463.832C240.243 462.685 240.122 461.477 240.246 460.281C240.371 459.086 240.738 457.929 241.325 456.88C242.507 454.775 242.963 452.34 242.624 449.949C242.284 447.559 241.168 445.347 239.446 443.655C235.959 440.524 230.914 439.768 226.238 440.081C225.014 437.409 227.061 434.394 229.268 432.452C231.475 430.51 234.154 428.601 234.635 425.701C235.39 421.14 229.57 417.675 225.151 419.035C220.732 420.396 217.912 424.688 216.047 428.919C214.977 431.347 214.068 433.903 212.38 435.95C210.693 437.997 207.976 439.463 205.405 438.806C201.767 437.876 200.361 433.553 199.556 429.884C198.475 424.962 197.389 419.972 197.615 414.938C197.841 409.905 199.538 404.736 203.25 401.328C209.299 395.775 218.578 396.319 226.742 397.205C224.813 395.032 225.29 391.37 227.353 389.325C228.443 388.357 229.752 387.669 231.167 387.322C232.582 386.974 234.06 386.977 235.474 387.33C237.934 387.842 240.15 389.167 241.765 391.091C244.085 393.919 244.745 397.738 246.498 400.949C248.252 404.159 252.194 406.897 255.421 405.175C258.209 403.687 258.651 399.822 257.958 396.74C257.264 393.657 255.79 390.66 256.042 387.51C256.521 381.501 262.751 377.883 268.248 375.408C273.745 372.933 280.04 369.605 280.911 363.639C280.941 362.471 281.161 361.316 281.563 360.219C282.173 359.25 283.02 358.453 284.025 357.904C300.069 347.301 316.379 336.569 334.717 330.775C335.671 330.474 335.783 330.809 336.755 330.573C338.116 329.786 337.214 327.611 335.91 326.734C334.605 325.858 332.861 325.186 332.53 323.649C332.287 322.52 332.952 321.411 333.125 320.269C333.55 317.462 330.192 314.87 327.584 315.992C326.111 314.042 329.026 311.775 331.383 311.126C338.46 309.178 345.724 307.992 353.053 307.586C353.899 307.452 354.765 307.599 355.519 308.005C356.75 308.858 356.593 310.814 355.72 312.031C354.848 313.248 353.491 314.012 352.404 315.042C351.216 316.199 350.369 317.66 349.955 319.266C349.541 320.871 349.576 322.56 350.056 324.147C353.882 326.093 358.041 328.096 362.279 327.411C366.516 326.725 370.277 321.964 368.285 318.162C366.431 314.621 360.859 313.822 359.901 309.941C358.779 305.397 365.211 301.356 363.763 296.906C363.128 294.956 361.185 293.809 359.694 292.402C357.934 290.676 356.736 288.459 356.259 286.04C355.782 283.622 356.047 281.115 357.02 278.85C354.592 279.277 352.097 279.116 349.744 278.38C347.391 277.643 345.249 276.354 343.497 274.619C340.263 271.354 337.682 266.205 333.089 266.351C328.875 266.485 325.244 271.402 321.303 269.902C320.333 269.533 319.311 268.782 318.372 269.222C318.064 269.422 317.805 269.689 317.616 270.004C317.427 270.318 317.311 270.671 317.278 271.037C316.277 275.825 318 281.281 315.39 285.419C312.55 289.922 305.981 290.546 302.538 294.606C300.669 296.81 299.945 299.78 298.227 302.104C296.51 304.428 292.863 305.905 290.802 303.88C291.815 301.797 292.092 299.432 291.587 297.172C291.082 294.911 289.825 292.889 288.022 291.435C286.108 290.186 284.044 289.183 281.88 288.448C279.462 287.424 277.162 286.142 275.02 284.624C273.946 283.977 273.074 283.044 272.501 281.929C272.047 280.534 272.108 279.022 272.673 277.667C273.719 274.67 275.563 272.016 278.007 269.99C280.45 267.964 283.401 266.645 286.54 266.174C289.285 265.8 292.48 265.932 294.296 263.84C295.258 262.734 295.762 261.061 297.157 260.611C298.049 260.432 298.976 260.546 299.798 260.937L310.043 264.543C311.186 265.059 312.445 265.267 313.693 265.146C314.312 265.063 314.877 264.749 315.274 264.266C315.67 263.784 315.87 263.169 315.833 262.546C315.505 260.845 312.887 260.028 313.126 258.312C313.259 257.756 313.558 257.253 313.983 256.871C317.681 252.935 322.202 249.866 327.225 247.883C332.247 245.899 337.646 245.051 343.034 245.398C344.328 247.522 342.282 250.037 340.581 251.85C338.879 253.663 337.512 256.903 339.569 258.298C340.413 258.729 341.351 258.94 342.297 258.913C344.82 259.254 347.271 259.998 349.558 261.115C353.099 262.656 356.571 264.341 359.975 266.172C359.675 263.927 359.388 261.563 360.238 259.464C361.089 257.365 363.507 255.719 365.62 256.536C367.655 257.324 368.699 260.019 370.868 260.266C373.76 260.595 374.902 256.322 373.693 253.673C372.485 251.024 370.093 248.806 369.893 245.901C369.759 243.942 370.504 241.511 368.939 240.325C368.382 239.968 367.75 239.747 367.092 239.677L328.008 232.485C325.687 232.058 322.334 232.385 322.231 234.743C322.174 236.059 323.349 237.361 322.829 238.571C322.273 239.862 320.447 239.744 319.118 240.201C317.055 240.91 316.019 243.359 316.218 245.532C316.58 247.69 317.416 249.742 318.666 251.539C316.123 250.476 312.274 250.281 309.732 249.217Z" fill="#05204A"/>
<path d="M278.547 216.04C276.082 215.224 273.426 215.186 270.94 215.931C268.453 216.676 266.255 218.168 264.644 220.204C264.001 221.051 263.46 222.219 263.999 223.136C264.771 224.452 266.74 223.932 268.191 223.462C270.323 222.7 272.645 222.644 274.811 223.304C276.174 223.772 277.393 224.598 278.761 225.049C279.427 225.327 280.157 225.419 280.871 225.315C281.586 225.21 282.258 224.913 282.817 224.456C283.756 223.498 283.815 222.009 283.817 220.667C283.882 220.218 283.846 219.761 283.712 219.327C283.577 218.894 283.348 218.496 283.04 218.163C282.493 217.846 281.877 217.664 281.245 217.632C279.829 217.37 278.549 216.622 277.625 215.517" fill="#05204A"/>
<path d="M292.64 212.116C292.088 212.086 291.538 212.199 291.043 212.443C290.547 212.686 290.123 213.054 289.81 213.509C289.498 213.965 289.307 214.493 289.258 215.043C289.209 215.593 289.302 216.147 289.528 216.651C291.222 217.113 292.991 217.228 294.731 216.99C295.599 216.855 296.407 216.467 297.054 215.873C297.701 215.28 298.158 214.508 298.368 213.656C296.32 214.028 294.206 213.625 292.44 212.523" fill="#05204A"/>
<path d="M339.923 205.563C335.313 206.543 330.834 208.065 326.581 210.095C328.586 210.866 330.29 212.261 331.443 214.073C332.596 215.886 333.136 218.021 332.983 220.164C332.803 220.987 332.824 221.84 333.044 222.653C333.534 223.841 334.954 224.287 336.202 224.592C338.445 225.274 340.787 225.573 343.129 225.476C344.301 225.415 345.439 225.062 346.44 224.45C347.441 223.839 348.274 222.987 348.863 221.972C349.202 221.009 349.601 220.068 350.055 219.154C353.048 214.597 361.937 220.107 365.149 215.702C366.281 214.151 366.177 211.815 367.653 210.586C368.416 210.05 369.3 209.713 370.226 209.604C376.687 208.32 383.213 207.391 389.775 206.82C392.884 206.549 396.936 205.433 396.962 202.312C385.251 200.012 373.108 201.645 362.421 206.958C358.571 208.887 353.478 212.944 349.769 210.387C348.38 209.43 348.449 206.852 346.538 205.775C344.584 204.675 341.997 205.122 339.923 205.563Z" fill="#05204A"/>
<path d="M378.222 212.725L383.719 213.782C382.707 213.737 381.697 213.908 380.757 214.285C379.817 214.661 378.967 215.234 378.266 215.964C377.564 216.695 377.026 217.567 376.688 218.521C376.351 219.476 376.22 220.492 376.306 221.502C381.454 223.221 387.067 221.548 392.49 221.776C397.913 222.005 404.222 225.879 403.296 231.227C403.016 232.844 402.082 234.46 402.568 236.028C402.909 237.127 403.878 237.906 404.425 238.918C405.564 241.027 404.653 243.694 403.214 245.611C401.775 247.528 399.841 249.057 398.577 251.094C395.436 256.161 397.221 262.711 399.092 268.371C399.633 270.51 400.633 272.506 402.021 274.22C404.794 277.168 409.313 277.425 413.359 277.484C416.305 277.527 419.679 277.381 421.542 275.099C423.973 272.12 422.273 267.471 423.874 263.974C425.328 260.799 429.033 259.436 432.389 258.47C438.538 256.7 444.805 255.195 450.618 252.521C457.837 249.201 464.583 244.026 472.518 243.599C474.743 243.479 477.025 243.742 479.169 243.132C481.313 242.522 483.35 240.668 483.187 238.445C483.049 236.545 481.441 235.15 480.186 233.718C478.93 232.286 477.944 230.084 479.098 228.569L499.894 224.685C498.42 220.667 497.272 215.376 500.659 212.761C501.881 211.818 503.518 211.441 504.558 210.3C506.332 208.356 505.44 205.007 503.393 203.354C501.345 201.7 498.577 201.317 495.955 201.099C486.836 200.341 477.665 200.842 468.528 201.343C450.668 202.322 432.808 203.301 414.949 204.28C411.353 204.477 407.202 204.176 403.905 205.402C401.113 206.441 399.128 208.347 395.935 209.016C390.041 210.253 383.555 209.416 378.222 212.725Z" fill="#05204A"/>
<path d="M476.706 256.178C476.146 256.09 475.573 256.22 475.106 256.541C474.797 256.881 474.614 257.317 474.585 257.775C474.23 259.799 474.653 261.882 475.769 263.608C476.337 264.454 477.122 265.133 478.041 265.574C478.961 266.014 479.981 266.201 480.997 266.114C483.472 265.798 485.297 263.687 487.572 262.656C491.08 261.069 505.975 258.596 495.671 253.029C492.12 251.11 489.826 252.804 487.027 254.067C483.843 255.696 480.275 256.426 476.706 256.178V256.178Z" fill="#05204A"/>
<path d="M566.956 209.583C565.753 210.074 564.747 210.95 564.094 212.074C563.793 212.645 563.723 213.309 563.899 213.93C564.074 214.551 564.482 215.08 565.037 215.409C565.486 215.572 565.962 215.648 566.44 215.632L571.332 215.778C573.411 215.84 576.007 216.283 576.565 218.286C576.98 219.773 576.052 221.684 577.172 222.746C577.652 223.119 578.23 223.344 578.836 223.395C580.447 223.809 582.13 223.864 583.765 223.555C587.325 222.6 585.454 220.427 586.575 218.493C588.291 215.533 587.994 217.325 591.016 215.628C593.248 214.376 596.133 212.103 594.27 208.91C591.03 203.358 571.737 207.197 566.956 209.583Z" fill="#05204A"/>
<path d="M663.515 206.791L660.674 207.17C654.269 208.025 647.826 208.888 641.656 210.811C644.327 211.867 647.129 212.555 649.985 212.855C651.558 212.932 653.119 213.154 654.651 213.518C657.376 214.33 660.122 216.424 662.755 215.351C664.387 214.686 664.92 212.986 666.272 212.085C667.206 211.463 670.747 210.457 671.143 209.829C674.343 204.754 665.975 206.463 663.515 206.791Z" fill="#05204A"/>
<path d="M675.989 219.702C672.195 221.824 668.674 224.402 665.506 227.379C664.171 228.634 662.808 230.194 662.929 232.022C663.09 234.452 665.678 235.861 667.92 236.81L677.001 240.655C678.103 239.102 677.094 236.959 675.956 235.433C674.817 233.907 673.464 232.141 673.967 230.305C674.541 228.21 677.096 227.496 679.239 227.135C682.729 226.547 692.146 226.594 691.014 220.968C689.681 214.339 679.493 217.743 675.989 219.702Z" fill="#05204A"/>
<path d="M674.163 594.829C673.298 597.332 673.216 600.28 674.712 602.466C676.39 604.918 679.748 605.832 682.654 605.21C685.547 604.44 688.126 602.782 690.027 600.469C691.766 598.531 693.197 596.338 694.269 593.965C695.765 590.268 696.82 586.407 697.412 582.463L700.232 567.659C700.862 564.35 700.837 554.207 694.756 557.512C693.095 558.414 689.249 565.543 687.508 567.564C684.37 571.208 683.955 574.743 682.303 579.156C680.234 584.685 676.076 589.292 674.163 594.829Z" fill="#05204A"/>
<path d="M995.345 670.586C993.355 669.81 991.424 668.891 989.567 667.836C987.704 672.956 986.714 678.353 986.637 683.801L1000.25 676.096C1002.3 674.937 1004.62 673.326 1004.58 670.973C1004.6 670.683 1004.54 670.392 1004.4 670.133C1004.27 669.874 1004.07 669.655 1003.83 669.5C1003.52 669.378 1003.19 669.34 1002.87 669.388C1000.85 669.556 999.012 670.549 997.107 671.24C995.202 671.931 992.975 672.296 991.228 671.271" fill="#3F3D56"/>
<path d="M1067.17 675.161C1065.68 675.568 1064.22 676.091 1062.81 676.728C1059.68 678.318 1057.56 681.337 1054.74 683.431C1052.05 685.435 1048.81 686.535 1045.63 687.605C1044.7 688.432 1045.13 690.097 1046.14 690.823C1047.24 691.444 1048.49 691.726 1049.74 691.631C1053.04 691.704 1056.52 691.736 1059.42 690.141C1061.05 689.083 1062.57 687.872 1063.97 686.524C1067.36 683.702 1071.42 681.839 1075.44 680.04C1076.9 679.487 1078.26 678.678 1079.44 677.65C1081.96 675.16 1082.14 671.319 1078.5 670.472C1075.55 669.787 1069.98 674.254 1067.17 675.161Z" fill="#05204A"/>
<path d="M1098.91 654.43C1099.07 652.717 1098.84 650.989 1098.24 649.377C1097.64 647.765 1096.68 646.31 1095.43 645.124C1095.4 648.551 1095.29 652.203 1093.36 655.037C1091.99 657.057 1089.84 658.421 1088.33 660.345C1086.83 662.269 1086.16 665.318 1087.92 667.006C1089.05 667.864 1090.43 668.338 1091.84 668.356C1095.36 668.77 1099.42 669 1101.89 666.462C1103.23 665.076 1103.89 663.024 1105.53 662.005C1106.14 661.749 1106.69 661.358 1107.13 660.862C1107.8 659.786 1106.73 658.366 1105.52 657.978C1104.3 657.59 1102.97 657.773 1101.75 657.404C1100.53 657.036 1099.42 655.667 1100.04 654.558" fill="#05204A"/>
<path d="M1042.5 528.759C1040.66 529.208 1038.75 529.32 1036.87 529.092C1033.74 528.517 1031.3 526.159 1028.78 524.226C1022.78 519.655 1015.48 517.105 1007.93 516.942C1001.07 516.813 994.144 518.672 987.404 517.375C987.844 519.824 989.94 521.661 992.176 522.753C994.412 523.845 996.881 524.394 999.127 525.464C1002.73 527.194 1005.58 530.163 1007.17 533.828C1007.89 535.517 1008.35 537.355 1009.44 538.83C1011.68 541.845 1015.93 542.507 1019.68 542.26C1024.56 541.939 1029.67 540.533 1034.21 542.354C1037.69 543.747 1040.18 546.791 1043.09 549.158C1045.99 551.525 1050.08 553.281 1053.41 551.574C1049.95 550.452 1046.94 548.253 1044.81 545.297C1042.69 542.342 1041.56 538.784 1041.6 535.144C1044.87 535.444 1054.29 535.328 1053.78 529.771C1053.35 525.062 1045.31 528.251 1042.5 528.759Z" fill="#05204A"/>
<path d="M999.72 567.076C1000.3 563.892 1003.48 561.079 1002.49 557.997C1001.8 555.865 999.331 554.812 997.093 554.76C994.855 554.707 992.656 555.374 990.418 555.437C988.962 555.359 987.501 555.38 986.047 555.499C981.605 556.229 978.867 560.885 974.68 562.541C972.135 563.548 969.275 563.355 966.627 564.051C960.617 565.631 956.815 571.31 952.613 575.889C945.825 583.254 936.982 588.411 927.229 590.692C923.812 591.484 920.139 591.99 917.423 594.209C913.826 597.148 912.941 602.186 912.14 606.762C909.929 619.398 906.551 631.801 902.047 643.813L916.318 645.635C919.031 645.981 921.842 646.32 924.457 645.516C926.356 644.8 928.155 643.841 929.81 642.665C936.166 638.719 943.279 636.151 950.689 635.128C954.426 634.615 958.344 634.521 961.851 635.91C965.358 637.299 968.367 640.449 968.661 644.21C970.177 643.738 971.794 643.687 973.337 644.062C974.88 644.438 976.292 645.225 977.423 646.341C979.657 648.618 981.121 651.539 981.606 654.692C981.982 656.644 982.358 658.983 984.17 659.802C985.648 660.471 987.343 659.751 988.96 659.622C994.447 659.183 998.999 665.58 1004.39 664.478C1010.18 663.297 1011.6 654.635 1017.24 652.9C1020.48 651.904 1025.02 653.115 1026.58 650.101C1027.94 647.444 1025.21 644.378 1025.5 641.403C1025.84 637.74 1030.16 636.185 1033.49 634.622C1044.98 629.234 1050.43 613.777 1044.86 602.378C1041.57 595.624 1035.08 590.307 1033.88 582.887C1032.96 577.178 1035.21 570.521 1031.57 566.028C1029.72 563.742 1026.58 562.48 1025.48 559.752C1024.79 558.035 1025.07 556.087 1024.69 554.274C1024.32 552.46 1022.74 550.563 1020.95 551.033C1015.75 552.398 1014.09 568.458 1011.3 572.36C1007.07 578.292 998.387 574.384 999.72 567.076Z" fill="#05204A"/>
<path d="M903.625 534.827C901.849 534.329 899.909 533.838 898.206 534.55C896.504 535.262 895.51 537.762 896.876 539.002C907.565 538.585 918.319 538.172 928.916 539.623C941.126 541.296 953.21 545.438 965.474 544.22C958.469 542.153 951.348 540.501 944.148 539.271L932.142 536.978C928.921 536.303 925.667 535.8 922.393 535.471C915.544 534.906 910.36 536.716 903.625 534.827Z" fill="#3F3D56"/>
<path d="M914.326 497.601C913.438 497.527 912.339 497.464 911.88 498.226C911.442 498.955 911.944 499.918 911.708 500.736C911.386 501.853 909.923 502.138 908.771 501.986C907.619 501.834 906.373 501.47 905.352 502.025C904.834 502.379 904.445 502.891 904.243 503.484C904.041 504.078 904.037 504.721 904.231 505.317C904.649 506.501 905.324 507.577 906.208 508.467C907.717 510.37 909.437 512.095 911.335 513.611C915.009 516.322 919.986 517.629 922.299 521.565C922.626 522.328 923.128 523.004 923.764 523.536C924.875 524.24 926.323 523.705 927.519 523.158L931.711 521.243C932.466 520.971 933.14 520.512 933.671 519.91C934.628 518.611 934.04 516.763 933.236 515.363C932.432 513.963 931.403 512.514 931.576 510.909C931.883 508.048 935.563 506.953 937.076 504.505C938.601 502.037 937.608 498.857 937.784 495.96C937.99 492.574 940.118 488.168 936.694 485.638C933.784 483.487 931.003 485.475 928.913 487.849C924.508 492.856 922.425 498.278 914.326 497.601Z" fill="#05204A"/>
<path d="M939.771 446.999C941.203 449.739 944.186 451.374 945.747 454.043C947.438 456.935 947.246 460.673 949.081 463.476C950.964 466.353 954.753 467.88 955.808 471.152C956.961 474.724 954.346 479.065 956.431 482.186C956.819 482.696 957.31 483.12 957.871 483.431C958.432 483.741 959.052 483.932 959.691 483.991C960.329 484.049 960.973 483.975 961.582 483.772C962.19 483.568 962.75 483.241 963.225 482.81C964.104 481.853 964.574 480.591 964.536 479.292C964.498 477.993 963.953 476.76 963.019 475.857C961.785 474.731 960.012 474.245 958.982 472.93C958.445 472.172 958.087 471.301 957.936 470.384C957.374 467.739 957.464 464.997 958.198 462.395C958.474 461.734 958.544 461.006 958.399 460.305C957.935 458.956 956.109 458.861 954.827 458.235C951.916 456.814 951.987 452.705 952.495 449.506C952.157 451.636 944.569 448.013 943.775 446.807C942.196 444.41 943.055 439.787 942.743 437.138C939.336 438.78 938.022 443.648 939.771 446.999Z" fill="#05204A"/>
<path d="M863.335 489.16C861.934 487.593 859.825 485.953 857.947 486.898C856.515 487.619 856.121 489.601 856.682 491.103C857.366 492.563 858.419 493.818 859.737 494.745C863.65 497.972 867.863 500.885 871.276 504.636C877.385 511.348 880.62 520.406 887.264 526.59C888.599 528.024 890.367 528.98 892.298 529.314C894.233 529.494 896.406 528.255 896.629 526.324C896.812 524.734 895.703 523.31 894.619 522.131C892.039 519.325 889.214 516.741 886.778 513.808C885.652 512.681 884.945 511.205 884.773 509.622C884.761 508.042 886.201 506.39 887.731 506.781C885.87 506.305 884.49 503.205 881.759 502.622C879.476 502.135 878.924 503.548 876.208 502.383C871.027 500.161 866.963 493.222 863.335 489.16Z" fill="#3F3D56"/>
<path d="M985.067 336.514C983.581 336.072 982.12 335.55 980.69 334.95C976.843 333.796 971.754 336.623 972.267 340.606C972.607 343.253 975.07 345.037 976.431 347.333C978.448 350.737 977.91 355.055 976.85 358.868C976.59 360.048 976.095 361.164 975.395 362.15C974.416 363.19 973.245 364.032 971.948 364.629C966.753 367.542 962.172 371.434 958.458 376.09C958.054 376.52 957.773 377.05 957.643 377.625C957.46 378.97 958.812 379.95 959.576 381.072C961.274 383.563 960.046 386.916 960.214 389.927C960.189 390.352 960.272 390.778 960.456 391.162C960.641 391.546 960.921 391.877 961.269 392.123C962.293 392.643 963.505 391.76 964.06 390.755C965.9 387.421 964.514 382.068 967.967 380.46C968.62 380.156 969.412 380.028 969.847 379.454C970.539 378.544 969.872 377.196 970.222 376.108C970.748 374.475 972.982 374.401 974.697 374.474C977.65 374.597 980.603 374.204 983.421 373.312C984.527 373.049 985.531 372.468 986.309 371.64C987.341 370.352 987.25 368.52 987.043 366.882C986.01 358.717 983.424 350.825 979.424 343.632C982.457 344.02 985.757 344.356 988.374 342.775C989.84 341.89 991.598 339.243 990.871 337.441C989.721 334.592 987.645 336.99 985.067 336.514Z" fill="#05204A"/>
<path d="M596.218 381.42C596.581 383.367 596.938 385.417 596.3 387.292C595.662 389.167 593.654 390.733 591.759 390.159C590.288 389.713 589.439 388.234 588.394 387.106C582.586 380.836 569.482 384.466 565.894 376.709C564.43 373.543 565.425 369.75 564.426 366.408C563.796 364.476 562.542 362.809 560.862 361.667C559.181 360.525 557.169 359.974 555.141 360.1C553.291 360.367 551.491 360.905 549.798 361.695C538.453 366.238 526.544 369.217 514.396 370.549C512.088 370.69 509.804 371.105 507.594 371.787C502.607 373.595 499.198 378.219 496.773 382.938C494.348 387.657 492.557 392.765 489.306 396.957C485.888 401.363 481.1 404.449 476.633 407.786C474.912 408.895 473.479 410.396 472.452 412.167C471.484 414.156 471.538 416.468 471.613 418.678L472.526 445.522C472.644 448.975 472.791 452.551 474.336 455.641C476.266 459.499 480.078 462.026 482.723 465.435C485.422 468.938 486.828 473.265 486.703 477.685C486.646 479.462 486.47 481.564 487.854 482.68C488.696 483.226 489.681 483.51 490.684 483.494L526.996 486.466C533.383 486.989 540.462 487.849 544.632 492.715C546.6 495.012 548.181 498.315 551.196 498.561C552.489 498.667 553.747 498.136 555.041 498.033C558.304 497.775 561.17 500.252 562.979 502.98C565.717 507.137 566.96 512.103 566.504 517.06C566.207 520.172 565.243 523.197 565.035 526.316C564.243 538.184 574.304 548.495 574.499 560.387C574.613 567.382 571.293 573.918 568.055 580.12C573.28 588.036 569.002 598.577 571.082 607.831C573.056 616.611 580.376 623.484 582.2 632.296C583.035 636.33 583.083 641.295 586.641 643.372C588.202 644.133 589.932 644.48 591.665 644.378C602.122 644.502 612.458 642.149 621.83 637.511C626.229 635.328 630.788 632.07 631.556 627.22C632.175 623.309 630.192 618.934 632.21 615.527C634.589 611.512 640.684 611.83 644.184 608.743C649.863 603.734 645.435 594.183 647.736 586.969C649.804 580.485 656.923 577.041 660.452 571.221C661.841 568.718 662.837 566.017 663.407 563.212C665.024 556.508 666.03 549.671 666.413 542.786C666.508 538.602 666.816 534.426 667.338 530.274C671.142 506.637 694.511 490.808 702.098 468.1C702.822 465.932 703.163 463.043 701.233 461.816C700.089 461.27 698.792 461.134 697.559 461.432L680.82 463.542C678.741 463.804 676.537 464.049 674.628 463.185C672.719 462.322 671.35 459.906 672.363 458.072C675.206 452.922 669.358 446.415 666.76 441.137C659.763 426.927 651.43 413.414 641.875 400.78C641.264 400.131 640.881 399.299 640.784 398.412L645.535 398.57C643.931 392.816 641.285 386.519 635.694 384.414C632.544 383.227 629.055 383.638 625.694 383.821C616.067 384.347 605.746 382.894 596.218 381.42Z" fill="#05204A"/>
<path d="M625.702 251.745C628.221 254.42 631.044 257.256 634.689 257.723C641.127 258.546 645.756 251.889 648.703 246.106C648.812 247.58 649.492 248.954 650.599 249.934C651.705 250.915 653.15 251.426 654.626 251.357C656.216 251.09 657.732 250.497 659.081 249.616C671.837 242.645 686.124 238.951 700.66 238.867C700.521 237.766 700.794 236.652 701.427 235.74C702.06 234.829 703.009 234.184 704.089 233.931C707.045 233.345 709.707 235.9 711.133 238.554C712.558 241.208 713.447 244.285 715.712 246.272C717.977 248.258 722.363 248.172 723.258 245.295C724.117 242.533 721.239 240.177 718.848 238.549C716.458 236.92 713.938 233.906 715.548 231.503C727.761 228.8 740.05 226.086 752.548 225.549C754.675 225.623 756.795 225.258 758.776 224.476C760.682 223.541 762.197 221.418 761.684 219.357C758.957 219.998 756.1 219.813 753.479 218.824C750.858 217.835 748.59 216.088 746.966 213.806C764.307 212.375 782.751 211.155 798.119 219.315C799.963 223.274 790.564 226.568 793.079 230.138C793.881 231.277 795.488 231.411 796.881 231.437C807.56 231.635 818.301 231.829 828.86 230.217C832.719 229.628 836.616 228.796 840.49 229.274C846.943 230.07 852.462 234.375 858.81 235.779C861.394 236.35 864.291 236.37 866.469 234.867C868.647 233.364 869.584 229.942 867.799 227.988C873.776 222.13 883.696 223.582 891.581 226.387C899.467 229.191 906.937 233.714 915.283 234.339C921.268 234.787 927.335 233.178 933.249 234.201C936.965 234.844 940.424 236.497 944.056 237.513C950.925 239.434 958.192 239.028 965.324 239.121C983.522 239.366 1001.52 242.942 1018.43 249.673C1020.63 250.389 1022.65 251.58 1024.33 253.161C1025.91 254.846 1026.71 257.464 1025.65 259.513L1008.18 256.96C1009.83 260.2 1014.08 260.753 1017.54 261.871C1021 262.989 1024.59 266.808 1022.51 269.79C1018.76 268.597 1015.37 272.344 1013.47 275.791C1011.58 279.239 1009.27 283.367 1005.35 283.577C1001.83 283.765 997.575 280.771 995.283 283.445C998.45 287.44 1001.16 291.775 1003.37 296.371C1005.63 301.089 1007.25 307.034 1004.19 311.279C1003.7 312.037 1002.97 312.603 1002.12 312.881C999.62 313.514 997.995 310.456 996.203 308.602C993.943 306.266 990.527 305.605 987.468 304.509C984.408 303.414 981.185 301.259 980.946 298.018C980.797 296.002 981.862 294.127 982.646 292.264C983.964 289.123 984.54 285.72 984.33 282.32C984.159 279.585 983.392 276.74 981.427 274.829C979.463 272.918 976.071 272.311 973.963 274.062C972.979 274.878 972.19 276.185 970.912 276.234C968.654 276.32 966.921 272.384 965.104 273.727C965.317 275.159 965.021 276.62 964.266 277.855C958.845 282.57 950.518 280.575 943.529 282.241C940.206 283.192 937.025 284.581 934.069 286.372C932.963 286.845 932.022 287.635 931.365 288.642C930.492 290.337 931.454 292.508 932.992 293.635C934.622 294.635 936.454 295.261 938.356 295.466C946.876 297.08 955.519 299.578 962.245 305.05C968.972 310.522 973.382 319.568 971.254 327.973L954.453 311.92C955.091 318.66 955.453 325.42 955.54 332.197C955.648 333.521 955.466 334.852 955.007 336.098C953.809 338.743 950.563 339.633 947.718 340.217C946.927 340.368 946.177 340.684 945.516 341.144C944.856 341.605 944.301 342.201 943.887 342.892C943.473 343.583 943.21 344.353 943.115 345.153C943.02 345.953 943.095 346.763 943.336 347.532C944.346 350.826 946.866 353.395 949.174 355.954C951.481 358.513 953.752 361.422 954.054 364.854C954.356 368.287 951.766 372.156 948.329 371.917C945.723 371.736 943.789 369.404 942.678 367.04C941.566 364.676 940.905 362.042 939.235 360.034C934.18 353.954 922.826 356.559 918.298 350.078C917.143 351.387 916.343 352.97 915.972 354.675C915.601 356.381 915.673 358.153 916.18 359.824C918.286 358.505 921.171 359.73 922.753 361.646C924.336 363.563 925.083 366.02 926.326 368.172C928.003 371.076 930.673 373.651 930.907 376.997C930.845 378.262 930.866 379.53 930.971 380.792C931.387 382.819 933.1 384.275 934.288 385.969C937.052 389.912 936.916 395.328 935.134 399.802C933.352 404.275 930.151 408.013 926.981 411.637C921.443 417.967 915.792 424.26 909.227 429.517C907.354 431.017 905.354 432.492 904.188 434.589C903.021 436.686 902.961 439.63 904.754 441.225C903.471 441.289 901.171 441.92 899.888 441.984C899.437 436.838 899.339 431.667 899.594 426.507C894.532 424.076 889.081 430.586 889.734 436.164C890.387 441.742 894.422 446.218 897.294 451.044C899.394 454.573 900.955 458.688 900.254 462.734C899.553 466.781 895.941 470.514 891.85 470.157C885.342 469.589 882.62 460.247 876.176 459.178C875.607 459.044 875.011 459.103 874.48 459.346C873.523 459.871 873.357 461.151 873.303 462.241C873.039 467.59 872.811 473.152 874.899 478.084C877.954 485.299 885.846 491.358 884.19 499.016C875.272 494.871 870.636 484.87 868.531 475.264C866.425 465.658 866.074 455.573 862.301 446.492C859.435 450.164 853.412 447.128 850.794 443.275C848.312 439.622 846.784 435.397 844.376 431.695C841.967 427.993 838.278 424.678 833.867 424.474C829.241 424.261 825.23 427.435 821.702 430.434C818.801 432.9 815.822 435.463 814.127 438.873C811.659 443.833 812.305 449.682 812.186 455.221C812.057 461.21 810.788 467.528 806.706 471.912C802.625 476.297 795.091 477.824 790.589 473.872C788.239 471.81 787.101 468.728 786.087 465.769C781.201 451.509 777.132 436.982 773.899 422.258C773.143 425.619 770.192 429.95 767.373 427.971C766.74 427.438 766.228 426.778 765.869 426.033C760.611 417.121 750.873 411.776 741.034 408.57C731.195 405.365 720.844 403.87 711.114 400.348C705.661 398.373 700.454 395.779 695.593 392.616C694.354 394.437 693.63 396.558 693.499 398.757C693.367 400.955 693.833 403.148 694.847 405.103C697.005 408.924 701.889 411.136 706.07 409.8C708.23 409.109 710.055 407.61 712.198 406.869C714.342 406.128 717.219 406.492 718.157 408.557C719.054 410.534 717.698 412.926 718.37 414.99C719.395 418.133 724.136 418.375 725.794 421.236C727.028 423.365 726.013 426.191 724.252 427.909C722.49 429.626 720.14 430.568 717.99 431.764C711.014 435.643 706.053 442.265 699.956 447.418C693.86 452.57 685.258 456.331 677.992 453.026C679.724 444.256 669.277 437.818 667.355 429.087C666.722 426.213 667.05 423.161 666.147 420.361C664.84 416.306 661.242 413.518 658.292 410.446C654.712 406.679 651.924 402.233 650.091 397.371C648.258 392.508 647.417 387.328 647.619 382.136C647.778 378.528 648.441 374.861 647.619 371.344C646.797 367.827 643.885 364.423 640.277 364.582C632.036 364.946 621.654 365.559 617.33 358.534C615.787 356.027 615.116 352.354 617.347 350.433C618.921 349.078 621.244 349.206 623.311 349.409L641.879 351.236C646.222 351.663 650.916 352.016 654.643 349.745C658.37 347.475 659.985 341.448 656.534 338.777C654.013 336.826 649.495 336.931 648.762 333.828C648.152 331.244 651.012 328.312 649.467 326.152C648.36 324.603 645.869 325.033 644.36 326.194C642.851 327.355 641.756 329.052 640.067 329.931C637.104 331.473 633.564 330.006 630.376 329.008C627.188 328.011 622.915 327.926 621.368 330.887C619.639 334.198 622.902 338.537 621.186 341.855C618.917 346.242 611.233 343.744 608.047 347.518C604.391 351.848 610.535 358.304 609.302 363.835C607.728 364.615 605.978 364.973 604.224 364.875C602.47 364.776 600.772 364.224 599.295 363.273C597.842 362.285 596.684 360.922 595.944 359.328C595.205 357.734 594.911 355.97 595.094 354.223C595.399 351.734 596.696 349.194 595.827 346.843C595.124 344.942 593.216 343.81 591.442 342.829L573.397 332.858C571.722 335.966 573.84 339.819 576.489 342.153C579.138 344.487 582.455 346.245 584.195 349.317C585.296 351.446 585.543 353.914 584.885 356.218C584.227 358.522 582.715 360.488 580.657 361.715C580.399 361.893 580.105 362.013 579.797 362.067C579.488 362.121 579.171 362.107 578.868 362.027C578.58 361.858 578.329 361.633 578.13 361.365C577.931 361.097 577.787 360.792 577.708 360.467C574.524 352.32 569.744 344.287 562.102 340.031C554.46 335.775 543.479 336.65 538.468 343.819C537.278 345.522 536.479 347.463 535.442 349.264C529.933 358.829 518.122 363.359 507.088 363.063C506.009 363.122 504.935 362.87 503.995 362.336C502.212 361.104 502.292 358.491 502.565 356.341L503.723 347.216C503.956 345.384 504.293 343.359 505.743 342.215C507.787 340.603 510.736 341.62 513.339 341.583C515.311 341.491 517.208 340.794 518.771 339.588C520.334 338.382 521.488 336.724 522.077 334.839C522.603 332.936 522.6 330.926 522.067 329.025C521.535 327.123 520.494 325.403 519.057 324.05C517.864 322.929 516.262 321.522 516.892 320.011C517.144 319.593 517.484 319.235 517.888 318.963C518.293 318.691 518.752 318.51 519.234 318.434C523.91 317.076 528.851 316.72 533.449 315.118C538.047 313.516 542.506 310.238 543.595 305.492C543.929 304.037 544.081 302.276 545.387 301.554C546.043 301.278 546.747 301.134 547.458 301.131C549.951 300.777 552.221 299.502 553.821 297.557C555.421 295.613 556.235 293.14 556.103 290.626C558.306 289.086 561.394 290.218 563.525 291.856C565.657 293.494 567.539 295.658 570.133 296.364C574.967 297.679 579.639 293.399 584.649 293.379C586.756 293.371 588.937 294.116 590.919 293.402C592.928 292.678 594.128 290.677 595.67 289.2C597.213 287.722 599.918 286.821 601.342 288.413L600.13 279.431C602.572 280.047 605.118 280.135 607.596 279.687C610.075 279.239 612.429 278.265 614.5 276.832L598.828 271.537C598.283 271.401 597.779 271.132 597.363 270.754C596.224 269.527 597.355 267.615 598.282 266.22C600.498 262.884 600.87 257.388 597.225 255.727C594.738 254.593 591.882 255.954 589.494 257.285L578.055 263.663C577.692 265.838 580.351 267.07 581.998 268.534C582.995 269.42 583.701 270.587 584.022 271.882C584.344 273.176 584.266 274.538 583.8 275.787C583.334 277.037 582.5 278.116 581.409 278.883C580.318 279.65 579.021 280.07 577.687 280.086C578.44 281.065 578.964 282.202 579.218 283.41C579.473 284.619 579.452 285.87 579.158 287.07L571.462 287.624C570.598 287.797 569.701 287.622 568.966 287.136C568.143 286.405 568.254 285.124 568.064 284.04C567.603 281.423 565.041 279.589 562.426 279.119C559.81 278.648 557.135 279.251 554.545 279.846C553.446 280.242 552.238 280.214 551.158 279.768C550.539 279.366 550.068 278.772 549.818 278.077C548.683 275.324 549.744 272.089 551.567 269.734C553.391 267.38 555.887 265.659 558.129 263.7C563.49 258.996 567.428 252.887 569.5 246.062C573.737 244.287 578.123 241.875 582.36 240.1C588.892 236.793 596.217 235.374 603.511 236.002L617.859 236.276C622.107 236.357 626.47 236.461 630.398 238.08C634.326 239.7 637.778 243.203 638.049 247.443C638.131 247.923 638.089 248.416 637.928 248.875C637.767 249.335 637.492 249.746 637.129 250.07C636.574 250.373 635.946 250.515 635.315 250.479C631.353 250.618 629.664 251.605 625.702 251.745Z" fill="#05204A"/>
<path d="M511.339 296.712C511.899 296.181 512.303 295.507 512.505 294.762C512.707 294.017 512.699 293.23 512.484 292.489C511.119 291.963 509.636 291.828 508.199 292.099C506.762 292.37 505.43 293.037 504.352 294.025C503.502 294.885 502.769 295.853 502.173 296.905C500.288 299.981 498.62 303.655 499.713 307.094C499.802 307.469 499.965 307.822 500.192 308.133C500.42 308.444 500.707 308.707 501.037 308.905C501.527 309.102 502.055 309.185 502.581 309.147C504.658 309.145 506.733 309.017 508.795 308.765C510.061 308.61 511.532 308.252 512.021 307.075C512.664 305.526 511.107 303.774 511.561 302.16C511.86 301.438 512.312 300.79 512.887 300.261C513.172 299.995 513.391 299.666 513.527 299.3C513.663 298.934 513.711 298.542 513.669 298.154C513.486 297.396 512.326 296.967 511.909 297.625" fill="#05204A"/>
<path d="M522.109 282.749C520.264 282.325 518.362 282.206 516.478 282.395C516.062 282.383 515.649 282.476 515.278 282.668C514.92 282.932 514.659 283.309 514.539 283.738C514.141 285.015 514.239 286.395 514.813 287.603C515.387 288.811 516.395 289.759 517.636 290.257C518.312 290.413 518.96 290.673 519.556 291.029C521.149 292.264 520.134 294.79 520.435 296.783C520.774 299.021 522.94 300.899 522.543 303.128C522.23 304.883 520.355 306.273 520.657 308.031C520.973 309.871 523.309 310.424 525.171 310.572C526.25 310.761 527.36 310.633 528.368 310.205C529.379 309.514 530.098 308.473 530.386 307.283C531.148 305.015 531.469 302.621 531.33 300.231C531.321 299.145 531.048 298.076 530.534 297.119C529.974 296.36 529.352 295.649 528.676 294.991C525.109 290.842 528.865 284.653 522.109 282.749Z" fill="#05204A"/>
<path opacity="0.8" d="M991.171 607.784C991.171 607.784 717.969 450.962 600.352 480.675C600.352 480.675 351.087 507.5 322.198 566.515C322.198 566.515 242.962 318.901 214.073 310.647" stroke="#6C63FF" stroke-width="2" stroke-miterlimit="10"/>
<path opacity="0.8" d="M322.199 566.515C368.007 444.359 780.698 308.996 780.698 308.996C722.096 323.853 600.352 480.675 600.352 480.675C600.352 480.675 342.833 293.314 214.073 310.647C214.073 310.647 781.111 329.218 991.17 607.784" stroke="#136F63" stroke-width="2" stroke-miterlimit="10"/>
<path d="M214.074 322.615C220.683 322.615 226.042 317.256 226.042 310.647C226.042 304.037 220.683 298.679 214.074 298.679C207.464 298.679 202.105 304.037 202.105 310.647C202.105 317.256 207.464 322.615 214.074 322.615Z" fill="#136F63"/>
<path d="M322.198 578.483C328.808 578.483 334.167 573.125 334.167 566.515C334.167 559.905 328.808 554.547 322.198 554.547C315.589 554.547 310.23 559.905 310.23 566.515C310.23 573.125 315.589 578.483 322.198 578.483Z" fill="#136F63"/>
<path d="M780.698 320.964C787.308 320.964 792.666 315.606 792.666 308.996C792.666 302.386 787.308 297.028 780.698 297.028C774.088 297.028 768.73 302.386 768.73 308.996C768.73 315.606 774.088 320.964 780.698 320.964Z" fill="#136F63"/>
<path d="M991.171 619.752C997.78 619.752 1003.14 614.394 1003.14 607.784C1003.14 601.174 997.78 595.816 991.171 595.816C984.561 595.816 979.203 601.174 979.203 607.784C979.203 614.394 984.561 619.752 991.171 619.752Z" fill="#136F63"/>
<path d="M600.352 492.643C606.962 492.643 612.32 487.285 612.32 480.675C612.32 474.066 606.962 468.707 600.352 468.707C593.743 468.707 588.384 474.066 588.384 480.675C588.384 487.285 593.743 492.643 600.352 492.643Z" fill="#136F63"/>
</g>
<defs>
<clipPath id="clip0_9_240">
<rect width="1176.61" height="873.979" fill="white"/>
</clipPath>
</defs>
</svg>
