<svg width="26" height="25" viewBox="0 0 26 25" fill="none" xmlns="http://www.w3.org/2000/svg">
<path d="M19.063 15.815C20.5312 13.7814 21.1797 11.2694 20.8794 8.77923C20.579 6.28904 19.3518 4.00332 17.442 2.37719C15.5323 0.751065 13.0802 -0.0961772 10.574 0.00416429C8.06777 0.104506 5.69125 1.14507 3.91766 2.91867C2.14406 4.69226 1.1035 7.06877 1.00316 9.57501C0.902816 12.0812 1.75006 14.5333 3.37619 16.4431C5.00231 18.3528 7.28803 19.58 9.77822 19.8804C12.2684 20.1807 14.7804 19.5323 16.814 18.064L23.135 24.385C23.2827 24.5327 23.458 24.6498 23.6509 24.7297C23.8439 24.8097 24.0507 24.8508 24.2595 24.8508C24.4683 24.8508 24.6751 24.8097 24.8681 24.7297C25.061 24.6498 25.2363 24.5327 25.384 24.385C25.5317 24.2373 25.6488 24.062 25.7287 23.8691C25.8086 23.6761 25.8498 23.4693 25.8498 23.2605C25.8498 23.0517 25.8086 22.8449 25.7287 22.6519C25.6488 22.459 25.5317 22.2837 25.384 22.136L19.063 15.815ZM5.39199 15.555C4.28808 14.4512 3.53629 13.0448 3.2317 11.5137C2.9271 9.98256 3.08337 8.39551 3.68076 6.95322C4.27815 5.51093 5.28981 4.27818 6.58782 3.41086C7.88583 2.54354 9.41188 2.08061 10.973 2.08061C12.5341 2.08061 14.0602 2.54354 15.3582 3.41086C16.6562 4.27818 17.6678 5.51093 18.2652 6.95322C18.8626 8.39551 19.0189 9.98256 18.7143 11.5137C18.4097 13.0448 17.6579 14.4512 16.554 15.555C15.0729 17.0334 13.0657 17.8637 10.973 17.8637C8.8803 17.8637 6.87311 17.0334 5.39199 15.555" fill="white"/>
<path d="M5.284 9.726C5.19514 9.72594 5.10733 9.70675 5.02655 9.66973C4.94577 9.63271 4.87391 9.57874 4.81584 9.51147C4.75778 9.44421 4.71488 9.36523 4.69006 9.2799C4.66524 9.19458 4.65908 9.10492 4.672 9.017C4.87296 7.6719 5.50047 6.42686 6.46216 5.46517C7.42385 4.50348 8.66889 3.87596 10.014 3.675C10.0943 3.66305 10.1762 3.66704 10.2549 3.68673C10.3337 3.70642 10.4078 3.74142 10.473 3.78975C10.5383 3.83809 10.5934 3.8988 10.6351 3.96842C10.6769 4.03804 10.7045 4.1152 10.7165 4.1955C10.7284 4.2758 10.7245 4.35767 10.7048 4.43644C10.6851 4.5152 10.6501 4.58931 10.6017 4.65454C10.5534 4.71978 10.4927 4.77485 10.4231 4.81662C10.3535 4.8584 10.2763 4.88605 10.196 4.898C9.11343 5.06016 8.11146 5.5654 7.33743 6.33943C6.5634 7.11346 6.05816 8.11543 5.896 9.198C5.87419 9.34448 5.80051 9.47825 5.68837 9.57497C5.57623 9.67169 5.43309 9.72493 5.285 9.72499" fill="white"/>
</svg>
